# xmcd
#
# Track frame offsets: 
#        150
#        16185
#        30045
#        42394
#        60581
#        75109
#        90336
#        108622
#        122511
#        139681
#        152624
#        169776
#        182890
#        202747
#        229434
#        249445
#        266145
#        281161
#        296832
#        316048
#
# Disc length: 4409 seconds
#
# Revision: 0
# Processed by: cddbd v1.5.2PL0 Copyright (c) Steve Scherf et al.
# Submitted via: ExactAudioCopy v0.99pb4
#
DISCID=03113714
DTITLE=Various Artist - Las 100 De Los Músicos, Poetas Y Locos CD 3
DYEAR=2008
DGENRE=Rock
TTITLE0=Os Paralamas Do Sucesso - Una Brasileira
TTITLE1=Plastilina Mosh - Purrum Pum Pum
TTITLE2=Orquesta Mondragón - Ellos Las Prefieren Gordas
TTITLE3=Alaska Y Dinarama - Alto, Prohibido Pasar
TTITLE4=Nacha Pop - Lloviendo En La Ciudad
TTITLE5=Los Ronaldos - Por Las Noches
TTITLE6=Víctimas Del Doctor Cerebro - Me Faltas Tú
TTITLE7=Héroes Del Silencio - El Mar No Cesa
TTITLE8=Miguel Ríos - Yo Sólo Soy Un Hombre
TTITLE9=Fito Paez - Corazón Clandestino
TTITLE10=Los Pericos - Home Sweet Home
TTITLE11=Os Paralamas Do Sucesso - Vamo Bate Lata
TTITLE12=Azul Violeta - Solo Soy
TTITLE13=Héroes Del Silencio - Avalancha
TTITLE14=Alaska Y Dinarama - Un Hombre De Verdad
TTITLE15=El Gran Silencio - Tonta Canción De Amor No. 2
TTITLE16=Jarabe De Palo - Duerme Conmigo
TTITLE17=Os Paralamas Do Sucesso - Caleidoscopio
TTITLE18=Plastilina Mosh - Monster Truck
TTITLE19=Víctimas Del Doctor Cerebro - Ya Tus Amigos
EXTD=
EXTT0=
EXTT1=
EXTT2=
EXTT3=
EXTT4=
EXTT5=
EXTT6=
EXTT7=
EXTT8=
EXTT9=
EXTT10=
EXTT11=
EXTT12=
EXTT13=
EXTT14=
EXTT15=
EXTT16=
EXTT17=
EXTT18=
EXTT19=
PLAYORDER=
